<svg width="100" height="100" viewBox="0 0 100 100" fill="none" xmlns="http://www.w3.org/2000/svg">
<path fill-rule="evenodd" clip-rule="evenodd" d="M17.8576 78.5718C16.9104 78.5718 16.002 78.948 15.3322 79.6178C14.6625 80.2875 14.2861 81.196 14.2861 82.1432C14.2861 83.0904 14.6625 83.9988 15.3322 84.6685C16.002 85.3383 16.9104 85.7147 17.8576 85.7147H39.2861C40.2333 85.7147 41.1417 85.3383 41.8115 84.6685C42.4812 83.9988 42.8576 83.0904 42.8576 82.1432C42.8576 81.196 42.4812 80.2875 41.8115 79.6178C41.1417 78.948 40.2333 78.5718 39.2861 78.5718H17.8576Z" fill="#A4A4A4"/>
<path fill-rule="evenodd" clip-rule="evenodd" d="M14.2862 0C13.6221 0.000603283 12.9714 0.186299 12.407 0.536239C11.8427 0.886178 11.3871 1.3865 11.0914 1.98103L0.37711 23.5352C0.149817 24.0054 0.0283605 24.5197 0.0213623 25.0419C0.0138833 25.0697 0.00680615 25.0976 0 25.1255V96.4286C9.47031e-05 97.3757 0.376347 98.2841 1.0461 98.9539C1.71585 99.6237 2.62426 99.9999 3.57143 100H96.4286C97.3757 99.9999 98.284 99.6237 98.9538 98.9539C99.6235 98.2841 99.9999 97.3757 100 96.4286V25.1255V25.1183C99.998 24.5685 99.8691 24.0267 99.6233 23.5349L88.909 1.9807C88.6133 1.3863 88.1578 0.886114 87.5935 0.536239C87.0293 0.186363 86.3786 0.000659785 85.7147 0H14.2862ZM16.4904 7.14287H38.6653L36.3286 21.5542H9.33358L16.4904 7.14287ZM45.8919 7.14287H61.2588L63.6653 21.5542H43.5621L45.8919 7.14287ZM68.4993 7.14287H83.5035L90.6673 21.5542H70.9058L68.4993 7.14287ZM7.14329 28.697H35.7147V64.2859C35.715 64.9921 35.9246 65.6823 36.3171 66.2694C36.7096 66.8565 37.2673 67.3141 37.9197 67.5844C38.5722 67.8546 39.2901 67.9254 39.9827 67.7878C40.6754 67.6501 41.3117 67.3102 41.8113 66.811L53.5719 55.0503L65.3325 66.811C65.832 67.3102 66.4684 67.6501 67.161 67.7878C67.8537 67.9254 68.5715 67.8546 69.224 67.5844C69.8765 67.3141 70.4341 66.8565 70.8266 66.2694C71.2191 65.6823 71.4287 64.9921 71.429 64.2859V28.697H92.8576V92.8573H7.14329V28.697ZM42.8576 28.697H64.2861V55.6642L56.097 47.475C55.4272 46.8055 54.5189 46.4293 53.5719 46.4293C52.6248 46.4293 51.7165 46.8055 51.0468 47.475L42.8576 55.6642V28.697Z" fill="#A4A4A4"/>
</svg>
