<svg width="20" height="18" viewBox="0 0 20 18" fill="none" xmlns="http://www.w3.org/2000/svg">
<path d="M3.62195 4.81396H16.378C16.5275 4.81396 16.6435 4.94417 16.6264 5.09261L15.2499 17.0287C15.2354 17.1548 15.1285 17.25 15.0016 17.25H4.99845C4.87146 17.25 4.76464 17.1548 4.75009 17.0287L3.3736 5.0926C3.35648 4.94417 3.47253 4.81396 3.62195 4.81396Z" stroke="#171717" stroke-width="1.5"/>
<path d="M1 4.3999H19" stroke="#171717" stroke-width="1.5" stroke-linecap="round"/>
<path d="M6 1H14" stroke="#171717" stroke-width="1.5" stroke-linecap="round"/>
<path d="M13 7.7998L13 14.5998" stroke="#171717" stroke-width="1.5" stroke-linecap="round"/>
<path d="M10 7.7998L10 14.5998" stroke="#171717" stroke-width="1.5" stroke-linecap="round"/>
<path d="M6 1L6 4.45931" stroke="#171717" stroke-width="1.5" stroke-linecap="round"/>
<path d="M14 1L14 4.45931" stroke="#171717" stroke-width="1.5" stroke-linecap="round"/>
<path d="M7 7.7998L7 14.5998" stroke="#171717" stroke-width="1.5" stroke-linecap="round"/>
</svg>
