<svg width="30" height="30" viewBox="0 0 30 30" fill="none" xmlns="http://www.w3.org/2000/svg">
<path fill-rule="evenodd" clip-rule="evenodd" d="M7.73065 26.0253C8.80165 26.0253 9.67316 26.9157 9.67316 28.0119C9.67316 29.108 8.80165 30 7.73065 30C6.65964 30 5.78964 29.108 5.78964 28.0119C5.78964 26.9157 6.65964 26.0253 7.73065 26.0253ZM24.6512 26.0253C25.7237 26.0253 26.5952 26.9157 26.5952 28.0119C26.5952 29.108 25.7237 30 24.6512 30C23.5802 30 22.7102 29.108 22.7102 28.0119C22.7102 26.9157 23.5802 26.0253 24.6512 26.0253ZM1.31692 0.0145649L4.43693 0.567252C4.93944 0.657831 5.32194 1.08463 5.36544 1.60661L5.71794 5.90683L7.02872 5.9074C7.24262 5.9075 7.45424 5.9076 7.66363 5.90769L10.0701 5.90886C10.2619 5.90896 10.4516 5.90906 10.6391 5.90916L13.2962 5.91065C13.4632 5.91075 13.6281 5.91085 13.791 5.91095L15.6531 5.91217C15.8006 5.91227 15.9462 5.91237 16.09 5.91247L17.7277 5.91371C17.857 5.91381 17.9845 5.91392 18.1104 5.91402L19.5383 5.91528C19.6506 5.91538 19.7613 5.91549 19.8703 5.91559L20.8088 5.91655C20.9084 5.91666 21.0064 5.91676 21.103 5.91687L22.1898 5.91816C22.2746 5.91827 22.3579 5.91838 22.4398 5.91849L23.3575 5.9198C23.4286 5.91991 23.4985 5.92002 23.567 5.92013L24.1503 5.92112C24.2114 5.92124 24.2713 5.92135 24.33 5.92146L24.9797 5.92281C25.0294 5.92292 25.078 5.92303 25.1255 5.92315L25.5253 5.92417C25.5667 5.92428 25.6071 5.9244 25.6466 5.92451L26.0752 5.9259C26.1073 5.92601 26.1386 5.92613 26.169 5.92624L26.4207 5.9273C26.4463 5.92741 26.4711 5.92753 26.4952 5.92765L26.7497 5.92907C26.7682 5.92919 26.7861 5.92931 26.8033 5.92942L26.9421 5.9305C26.9557 5.93062 26.9689 5.93074 26.9815 5.93086L27.0814 5.93195C27.091 5.93208 27.1002 5.9322 27.109 5.93232L27.177 5.93342C27.1834 5.93354 27.1894 5.93367 27.1951 5.93379L27.2381 5.9349C27.2421 5.93503 27.2457 5.93515 27.2491 5.93528L27.2803 5.93678L27.2856 5.93716C27.3002 5.93855 27.3045 5.93907 27.3045 5.93907C28.14 6.06342 28.875 6.51018 29.376 7.19796C29.877 7.88422 30.087 8.73014 29.967 9.57759L28.5435 19.6457C28.275 21.5617 26.649 23.0064 24.759 23.0064H8.37745C6.40194 23.0064 4.72944 21.4281 4.56894 19.4093L3.19493 2.68435L0.934421 2.28519C0.320919 2.17465 -0.0885828 1.58051 0.0164176 0.952598C0.124418 0.324684 0.71692 -0.0836906 1.31692 0.0145649ZM6.72779 8.21021L5.90694 8.20969L6.81144 19.2204C6.87744 20.0679 7.55395 20.7035 8.38045 20.7035H24.756C25.5375 20.7035 26.205 20.1078 26.316 19.3172L27.741 9.24751C27.774 9.00802 27.7155 8.76852 27.573 8.57508C27.432 8.3801 27.225 8.25421 26.991 8.22044C26.9802 8.22086 26.9543 8.22125 26.914 8.2216L26.7509 8.22255C26.7168 8.2227 26.6792 8.22283 26.6384 8.22296L25.7886 8.22428C25.7169 8.22433 25.6424 8.22438 25.5651 8.22441L23.5671 8.22433C23.4556 8.22429 23.342 8.22424 23.2264 8.22419L20.9462 8.22277C20.8096 8.22267 20.6715 8.22256 20.532 8.22245L19.2418 8.2214C19.0948 8.22127 18.9468 8.22114 18.7977 8.22101L17.4311 8.21978C17.2768 8.21964 17.1217 8.2195 16.966 8.21935L16.0246 8.21846C15.8666 8.21832 15.7082 8.21816 15.5494 8.21801L14.1129 8.21664C13.9527 8.21649 13.7924 8.21633 13.6321 8.21618L12.6712 8.21527C12.5112 8.21511 12.3515 8.21496 12.192 8.21481L11.2392 8.21393C11.0812 8.21378 10.9236 8.21364 10.7666 8.2135L9.37087 8.21227C9.21798 8.21214 9.06592 8.21201 8.91477 8.21188L7.15088 8.21051C7.00854 8.21041 6.86748 8.21031 6.72779 8.21021ZM22.3469 11.5815C22.9679 11.5815 23.4719 12.0974 23.4719 12.733C23.4719 13.3686 22.9679 13.8844 22.3469 13.8844H18.1888C17.5663 13.8844 17.0638 13.3686 17.0638 12.733C17.0638 12.0974 17.5663 11.5815 18.1888 11.5815H22.3469Z" fill="#EAEAEA"/>
<path d="M6.25435 21.5992L4.7998 7.19922H28.7998L27.3453 21.5992H6.25435Z" fill="#EAEAEA"/>
</svg>
