<svg width="30" height="30" viewBox="0 0 30 30" fill="none" xmlns="http://www.w3.org/2000/svg">
<path d="M15.4913 30C13.2788 30 11.2116 29.6722 9.34685 29.0257C7.4662 28.3736 5.80599 27.3984 4.41244 26.1275C3.01358 24.8519 1.91541 23.2599 1.14837 21.3958C0.386441 19.5448 0 17.4015 0 15.0258V15.0087C0 12.806 0.370899 10.7655 1.10237 8.9439C1.83712 7.11428 2.89718 5.51203 4.25332 4.18165C5.60875 2.85188 7.23696 1.81056 9.09277 1.08674C10.9418 0.365605 13.0001 0 15.2106 0C18.0269 0 20.5754 0.562229 22.7851 1.67102C25.0118 2.7885 26.7904 4.40064 28.0712 6.46302C29.3511 8.5244 30 10.9901 30 13.7917V13.8088C30 15.7835 29.7268 17.4716 29.1881 18.826C28.6331 20.2215 27.8548 21.2979 26.8747 22.0254C25.8741 22.7681 24.7366 23.1446 23.4938 23.1446C22.2242 23.1446 21.15 22.7857 20.3008 22.0778C19.8022 21.6621 19.3908 21.1874 19.0703 20.6588C18.6512 21.2663 18.1268 21.7578 17.5023 22.1269C16.5334 22.6999 15.408 22.9904 14.1575 22.9904C12.8009 22.9904 11.5888 22.6446 10.5547 21.9625C9.5303 21.2873 8.72587 20.337 8.16374 19.138C7.61419 17.966 7.33548 16.5881 7.33548 15.0427V15.0257C7.33548 13.5216 7.62175 12.1748 8.18653 11.0224C8.7606 9.85028 9.57016 8.91746 10.5925 8.24983C11.6261 7.57461 12.8256 7.23216 14.1575 7.23216C15.2152 7.23216 16.2029 7.48538 17.0933 7.98473C17.4482 8.18405 17.7649 8.41122 18.0424 8.66524C18.3766 8.00948 19.0702 7.55774 19.8699 7.55774C20.9946 7.55774 21.9098 8.45144 21.9098 9.54986V16.6023C21.9098 17.6233 22.0824 18.3734 22.4228 18.8315C22.7197 19.2314 23.0712 19.4174 23.529 19.4174C24.387 19.4174 24.8618 18.7287 25.1443 18.2106C25.6592 17.2663 25.9203 15.791 25.9203 13.8258V13.8087C25.9203 11.7296 25.4609 9.91766 24.5547 8.423C23.6522 6.93492 22.3738 5.77024 20.7552 4.96127C19.1159 4.14223 17.1737 3.72682 14.9825 3.72682C13.4013 3.72682 11.9299 4.0025 10.6096 4.54606C9.29176 5.08853 8.13257 5.86725 7.16429 6.86056C6.19335 7.85677 5.42908 9.05859 4.89271 10.4326C4.35328 11.8142 4.07978 13.3594 4.07978 15.0255V15.0425C4.07978 17.4646 4.58405 19.5342 5.57891 21.1938C6.56844 22.8455 7.93163 24.1129 9.63067 24.9609C11.3516 25.8199 13.3353 26.2554 15.5266 26.2554C16.6684 26.2554 17.7806 26.1828 18.8323 26.0393C19.2194 25.9864 19.5758 25.9262 19.8912 25.8605C20.0198 25.8337 20.1509 25.82 20.2812 25.82C21.3051 25.82 22.1381 26.6359 22.1381 27.6388C22.1381 28.4547 21.579 29.1746 20.7785 29.3894C19.2684 29.7946 17.4896 30 15.4913 30ZM14.5963 10.9936C13.9556 10.9936 13.4318 11.1378 12.9949 11.4344C12.5504 11.7359 12.2142 12.1678 11.9669 12.7547C11.7057 13.3752 11.5732 14.1449 11.5732 15.0427V15.0599C11.5732 15.9701 11.7059 16.7491 11.9677 17.3754C12.2163 17.9709 12.5549 18.4124 13.0028 18.7253C13.4382 19.0298 13.9478 19.1777 14.5612 19.1777C15.5467 19.1777 16.3058 18.837 16.8817 18.1362C17.4876 17.3989 17.7949 16.3697 17.7949 15.0771V15.06C17.7949 13.7691 17.4886 12.7468 16.8846 12.0213C16.3087 11.3299 15.5601 10.9936 14.5963 10.9936Z" fill="#EAEAEA"/>
</svg>
