<svg width="30" height="30" viewBox="0 0 30 30" fill="none" xmlns="http://www.w3.org/2000/svg">
<path d="M15.0007 0C6.72933 0 0 6.729 0 15C0 23.271 6.72933 30 15.0007 30C23.2721 30 30 23.271 30 15C30 6.729 23.2721 0 15.0007 0ZM26.7031 13.411H22.139C21.9746 10.1225 21.3058 6.8644 20.1645 4.38283C23.6424 6.08096 26.1642 9.43026 26.7031 13.411ZM15.0007 26.8206C13.5305 26.8206 11.3694 22.7971 11.0446 16.589H18.9554C18.6321 22.7971 16.4709 26.8206 15.0007 26.8206ZM11.0446 13.411C11.3694 7.20292 13.5291 3.17935 15.0007 3.17935C16.4709 3.17935 18.632 7.20292 18.9567 13.411H11.0446ZM9.83832 4.38283C8.69697 6.8644 8.02682 10.1225 7.86377 13.411H3.29971C3.83723 9.43026 6.35898 6.08096 9.83832 4.38283ZM3.29832 16.589H7.86238C8.02681 19.8775 8.69562 23.1342 9.83698 25.6172C6.35901 23.919 3.83722 20.5697 3.29832 16.589ZM20.1631 25.6172C21.3044 23.1342 21.9746 19.8775 22.1376 16.589H26.7017C26.1642 20.5697 23.6424 23.919 20.1631 25.6172Z" fill="#EAEAEA"/>
</svg>
