<svg width="39" height="30" viewBox="0 0 39 30" fill="none" xmlns="http://www.w3.org/2000/svg">
<path d="M38.025 20.625H37.05V14.291C37.05 13.5469 36.7392 12.832 36.1908 12.3047L30.1031 6.45117C29.5547 5.92383 28.8113 5.625 28.0373 5.625H25.35V2.8125C25.35 1.25977 24.0398 0 22.425 0H2.925C1.31016 0 0 1.25977 0 2.8125V21.5625C0 23.1152 1.31016 24.375 2.925 24.375H3.9C3.9 27.4805 6.52031 30 9.75 30C12.9797 30 15.6 27.4805 15.6 24.375H23.4C23.4 27.4805 26.0203 30 29.25 30C32.4797 30 35.1 27.4805 35.1 24.375H38.025C38.5613 24.375 39 23.9531 39 23.4375V21.5625C39 21.0469 38.5613 20.625 38.025 20.625ZM9.75 27.1875C8.13516 27.1875 6.825 25.9277 6.825 24.375C6.825 22.8223 8.13516 21.5625 9.75 21.5625C11.3648 21.5625 12.675 22.8223 12.675 24.375C12.675 25.9277 11.3648 27.1875 9.75 27.1875ZM29.25 27.1875C27.6352 27.1875 26.325 25.9277 26.325 24.375C26.325 22.8223 27.6352 21.5625 29.25 21.5625C30.8648 21.5625 32.175 22.8223 32.175 24.375C32.175 25.9277 30.8648 27.1875 29.25 27.1875ZM34.125 15H25.35V8.4375H28.0373L34.125 14.291V15Z" fill="#EAEAEA"/>
</svg>
