<svg width="26" height="28" viewBox="0 0 26 28" fill="none" xmlns="http://www.w3.org/2000/svg">
<path d="M2 14.001C2 14.001 6 6.00098 13 6.00098C20 6.00098 24 14.001 24 14.001" stroke="#A4A4A4" stroke-width="2" stroke-linecap="round" stroke-linejoin="round"/>
<path d="M2 14.001C2 14.001 6 22.001 13 22.001C20 22.001 24 14.001 24 14.001" stroke="#A4A4A4" stroke-width="2" stroke-linecap="round" stroke-linejoin="round"/>
<path d="M13 17.001C14.6569 17.001 16 15.6578 16 14.001C16 12.3441 14.6569 11.001 13 11.001C11.3431 11.001 10 12.3441 10 14.001C10 15.6578 11.3431 17.001 13 17.001Z" stroke="#A4A4A4" stroke-width="2" stroke-linecap="round" stroke-linejoin="round"/>
<mask id="path-4-outside-1_854_46" maskUnits="userSpaceOnUse" x="4.34658" y="1.81288" width="21.6695" height="27.1543" fill="black">
<rect fill="white" x="4.34658" y="1.81288" width="21.6695" height="27.1543"/>
<path d="M6.57919 26.4753C6.25931 26.9194 5.63325 27.0297 5.18085 26.7218V26.7218C4.72844 26.4139 4.62101 25.8044 4.94088 25.3604L20.9898 3.08325C21.3097 2.63924 21.9357 2.52889 22.3881 2.83678V2.83678C22.8405 3.14467 22.948 3.7542 22.6281 4.19822L6.57919 26.4753Z"/>
</mask>
<path d="M6.57919 26.4753C6.25931 26.9194 5.63325 27.0297 5.18085 26.7218V26.7218C4.72844 26.4139 4.62101 25.8044 4.94088 25.3604L20.9898 3.08325C21.3097 2.63924 21.9357 2.52889 22.3881 2.83678V2.83678C22.8405 3.14467 22.948 3.7542 22.6281 4.19822L6.57919 26.4753Z" fill="#A4A4A4"/>
<path d="M6 27.2793L4.3617 26.1643L6 27.2793ZM21.569 2.2793L23.2073 3.39426L21.569 2.2793ZM22.3881 2.83678C23.8907 3.85935 24.2475 5.88375 23.1851 7.35841L9.82504 25.9032C8.76266 27.3779 6.68339 27.7444 5.18085 26.7218L5.18085 26.7218C4.9636 26.574 4.81626 26.3475 4.77126 26.0921C4.72626 25.8368 4.78727 25.5736 4.94088 25.3604L4.94088 25.3604L4.3617 26.1643L20.9898 3.08325C21.1434 2.87003 21.377 2.72427 21.6393 2.67805C21.9015 2.63183 22.1709 2.68893 22.3881 2.83678L22.3881 2.83678ZM4.3617 26.1643L21.569 2.2793L4.3617 26.1643Z" fill="white" mask="url(#path-4-outside-1_854_46)"/>
</svg>
