<svg width="30" height="30" viewBox="0 0 30 30" fill="none" xmlns="http://www.w3.org/2000/svg">
<path d="M6 2.5C6 1.11929 7.07451 0 8.4 0H28.2857C29.2325 0 30 0.799492 30 1.78571V5H8.4C7.07451 5 6 3.88071 6 2.5Z" fill="#EAEAEA"/>
<path d="M6 27.5C6 26.1193 7.07451 25 8.4 25H30V28.2143C30 29.2005 29.2325 30 28.2857 30H8.4C7.07451 30 6 28.8807 6 27.5Z" fill="#EAEAEA"/>
<path d="M30 5H25V25H30V5Z" fill="#EAEAEA"/>
<path d="M16.2 13H1.8C0.805887 13 0 13.8954 0 15C0 16.1046 0.805887 17 1.8 17H16.2C17.1941 17 18 16.1046 18 15C18 13.8954 17.1941 13 16.2 13Z" fill="#EAEAEA"/>
<path d="M14.7869 8.45207L18.8612 12.3194C20.3796 13.7606 20.3796 16.2394 18.8612 17.6805L14.7869 21.5479C14.4806 21.8387 14.08 22 13.6644 22C12.1495 22 11.4252 20.0721 12.542 19.0121L14.5717 17.0854C15.753 15.9642 15.753 14.0358 14.5717 12.9145L12.542 10.988C11.4252 9.92798 12.1495 8 13.6644 8C14.08 8 14.4806 8.16132 14.7869 8.45207Z" fill="#EAEAEA"/>
</svg>
