<svg width="30" height="30" viewBox="0 0 30 30" fill="none" xmlns="http://www.w3.org/2000/svg">
<path d="M6 2.5C6 1.11929 7.07451 0 8.4 0H28.2857C29.2325 0 30 0.799492 30 1.78571V5H8.4C7.07451 5 6 3.88071 6 2.5Z" fill="#EAEAEA"/>
<path d="M6 27.5C6 26.1193 7.07451 25 8.4 25H30V28.2143C30 29.2005 29.2325 30 28.2857 30H8.4C7.07451 30 6 28.8807 6 27.5Z" fill="#EAEAEA"/>
<path d="M30 5H25V25H30V5Z" fill="#EAEAEA"/>
<path d="M3.8 17L18.2 17C19.1941 17 20 16.1046 20 15C20 13.8954 19.1941 13 18.2 13L3.8 13C2.80589 13 2 13.8954 2 15C2 16.1046 2.80589 17 3.8 17Z" fill="#EAEAEA"/>
<path d="M5.21313 21.5479L1.1388 17.6806C-0.379598 16.2394 -0.379598 13.7606 1.1388 12.3195L5.21313 8.45209C5.51944 8.16127 5.91996 8 6.33558 8C7.85046 8 8.57476 9.92791 7.45802 10.9879L5.42831 12.9146C4.24696 14.0358 4.24696 15.9642 5.42831 17.0855L7.45802 19.012C8.57475 20.072 7.85046 22 6.33557 22C5.91996 22 5.51944 21.8387 5.21313 21.5479Z" fill="#EAEAEA"/>
</svg>
