<svg width="43" height="27" viewBox="0 0 43 27" fill="none" xmlns="http://www.w3.org/2000/svg">
<path d="M29.9141 3C35.9663 3 40.874 7.70136 40.874 13.5C40.874 15.2171 40.4412 16.8375 39.6777 18.2686L42.0557 22.5088C42.4883 23.28 41.7327 24.1673 40.8564 23.916L35.6865 22.4248C34.0108 23.4218 32.0322 24 29.9141 24C29.0118 24 28.1357 23.8924 27.2969 23.6953C29.9 20.8564 31.4863 17.0913 31.4863 12.96C31.4856 9.26237 30.2149 5.85798 28.082 3.14844C28.6779 3.0523 29.2897 3.00003 29.9141 3Z" fill="#EAEAEA"/>
<path d="M15.1154 0C7.74737 0 1.7736 6.04462 1.7736 13.5C1.7736 15.7078 2.30067 17.791 3.23018 19.631L0.334524 25.0823C-0.192485 26.0741 0.728292 27.2153 1.79534 26.8916L8.08902 24.9753C10.129 26.2572 12.5368 27 15.1154 27C22.4834 27 28.457 20.9554 28.457 13.5C28.4556 6.04462 22.4834 0 15.1154 0Z" fill="#EAEAEA"/>
</svg>
