<svg width="32" height="32" viewBox="0 0 32 32" fill="none" xmlns="http://www.w3.org/2000/svg">
<path d="M14.7701 0.678222C15.3624 -0.226073 16.6377 -0.226075 17.2299 0.678221L22.0103 7.97747C22.2042 8.2735 22.4897 8.49055 22.8186 8.59203L30.9297 11.0941C31.9346 11.404 32.3287 12.6733 31.6898 13.5421L26.5333 20.5554C26.3241 20.8399 26.2151 21.191 26.2245 21.5498L26.457 30.3955C26.4858 31.4913 25.4541 32.2757 24.467 31.9084L16.4996 28.9436C16.1765 28.8233 15.8236 28.8233 15.5004 28.9436L7.53306 31.9084C6.54599 32.2757 5.51424 31.4913 5.54304 30.3955L5.77552 21.5498C5.78495 21.191 5.67591 20.8399 5.46678 20.5554L0.310173 13.5421C-0.328669 12.6733 0.0654232 11.404 1.07029 11.0941L9.18139 8.59203C9.5103 8.49055 9.79579 8.2735 9.98972 7.97747L14.7701 0.678222Z" fill="#E1A930"/>
</svg>
