<svg width="60" height="60" viewBox="0 0 60 60" fill="none" xmlns="http://www.w3.org/2000/svg">
<rect width="60" height="60" rx="30" fill="#EAEAEA"/>
<path d="M12.3297 28.0651C12.3297 28.0651 29.1362 21.4795 34.965 19.1606C37.1994 18.2331 44.7769 15.2648 44.7769 15.2648C44.7769 15.2648 48.2742 13.9663 47.9827 17.1199C47.8855 18.4186 47.1084 22.9635 46.3313 27.8796C45.1654 34.8363 43.9025 42.4421 43.9025 42.4421C43.9025 42.4421 43.7082 44.5756 42.0568 44.9466C40.4053 45.3176 37.6851 43.6481 37.1994 43.2769C36.8107 42.9988 29.9133 38.8247 27.3875 36.7841C26.7075 36.2276 25.9303 35.1146 27.4846 33.8159C30.982 30.755 35.1593 26.9521 37.6851 24.5405C38.8509 23.4273 40.0166 20.8302 35.1593 23.9838C28.2619 28.5289 21.4616 32.7956 21.4616 32.7956C21.4616 32.7956 19.9072 33.7231 16.9928 32.8883C14.0783 32.0536 10.6781 30.9405 10.6781 30.9405C10.6781 30.9405 8.34671 29.5492 12.3297 28.0651Z" fill="#252525"/>
</svg>
