<svg width="40" height="40" viewBox="0 0 40 40" fill="none" xmlns="http://www.w3.org/2000/svg">
<rect width="40" height="40" fill="#34AADF"/>
<path d="M7.53271 18.71C7.53271 18.71 18.5896 14.3197 22.4243 12.7737C23.8944 12.1554 28.8795 10.1765 28.8795 10.1765C28.8795 10.1765 31.1804 9.31088 30.9886 11.4133C30.9247 12.279 30.4134 15.309 29.9022 18.5864C29.1352 23.2242 28.3043 28.2948 28.3043 28.2948C28.3043 28.2948 28.1765 29.717 27.09 29.9644C26.0035 30.2117 24.2139 29.0987 23.8944 28.8513C23.6386 28.6658 19.1009 25.8831 17.4392 24.5227C16.9918 24.1517 16.4805 23.4097 17.503 22.544C19.8039 20.5033 22.5521 17.9681 24.2139 16.3603C24.9809 15.6182 25.7478 13.8868 22.5521 15.9892C18.0144 19.0193 13.5405 21.8638 13.5405 21.8638C13.5405 21.8638 12.5179 22.4821 10.6005 21.9255C8.68307 21.3691 6.44612 20.627 6.44612 20.627C6.44612 20.627 4.91231 19.6995 7.53271 18.71Z" fill="white"/>
</svg>
