<svg width="60" height="60" viewBox="0 0 60 60" fill="none" xmlns="http://www.w3.org/2000/svg">
<rect width="60" height="60" rx="30" fill="#EAEAEA"/>
<path fill-rule="evenodd" clip-rule="evenodd" d="M48.128 21.4897C48.3922 20.631 48.128 20 46.8708 20H42.7136C41.6566 20 41.1693 20.5451 40.905 21.1461C40.905 21.1461 38.7909 26.1695 35.796 29.4326C34.8271 30.3771 34.3866 30.6776 33.8581 30.6776C33.5939 30.6776 33.2113 30.3771 33.2113 29.5185V21.4897C33.2113 20.4592 32.9046 20 32.0236 20H25.4909C24.8303 20 24.4331 20.4783 24.4331 20.9315C24.4331 21.9084 25.9304 22.1336 26.0848 24.8815V30.8494C26.0848 32.1579 25.8424 32.3951 25.3138 32.3951C23.9045 32.3951 20.4764 27.3493 18.4431 21.5755C18.0447 20.4533 17.645 20 16.5826 20H12.4253C11.2376 20 11 20.5451 11 21.1461C11 22.2195 12.4094 27.5435 17.5623 34.5847C20.9976 39.3934 25.8377 42 30.242 42C32.8845 42 33.2114 41.4211 33.2114 40.4238V36.7895C33.2114 35.6316 33.4618 35.4005 34.2986 35.4005C34.9151 35.4005 35.9722 35.701 38.4386 38.0195C41.2573 40.7673 41.722 42 43.3075 42H47.4647C48.6525 42 49.2464 41.4211 48.9038 40.2785C48.5289 39.1398 47.1831 37.4877 45.3974 35.5293C44.4284 34.413 42.975 33.2109 42.5345 32.6097C41.918 31.8369 42.0941 31.4934 42.5345 30.8065C42.5345 30.8065 47.5995 23.8511 48.128 21.4897Z" fill="#252525"/>
</svg>
