<svg width="40" height="40" viewBox="0 0 40 40" fill="none" xmlns="http://www.w3.org/2000/svg">
<rect width="40" height="40" fill="#2787F5"/>
<path fill-rule="evenodd" clip-rule="evenodd" d="M32.4034 13.948C32.5841 13.4015 32.4034 13 31.5432 13H28.6988C27.9756 13 27.6421 13.3469 27.4613 13.7294C27.4613 13.7294 26.0148 16.9261 23.9657 19.0025C23.3027 19.6036 23.0014 19.7949 22.6397 19.7949C22.459 19.7949 22.1972 19.6036 22.1972 19.0572V13.948C22.1972 13.2922 21.9873 13 21.3846 13H16.9148C16.4628 13 16.191 13.3043 16.191 13.5928C16.191 14.2144 17.2155 14.3578 17.3212 16.1064V19.9042C17.3212 20.7368 17.1553 20.8878 16.7937 20.8878C15.8294 20.8878 13.4838 17.6768 12.0927 14.0026C11.82 13.2885 11.5466 13 10.8196 13H7.97523C7.16255 13 7 13.3469 7 13.7294C7 14.4124 7.96432 17.8004 11.49 22.2812C13.8405 25.3412 17.1521 27 20.1656 27C21.9736 27 22.1973 26.6316 22.1973 25.997V23.6842C22.1973 22.9474 22.3686 22.8003 22.9411 22.8003C23.363 22.8003 24.0862 22.9916 25.7738 24.467C27.7024 26.2156 28.0203 27 29.1051 27H31.9496C32.7622 27 33.1686 26.6316 32.9342 25.9045C32.6777 25.1799 31.7569 24.1286 30.535 22.8823C29.872 22.1719 28.8776 21.4069 28.5763 21.0243C28.1544 20.5326 28.2749 20.314 28.5763 19.8769C28.5763 19.8769 32.0418 15.4507 32.4034 13.948Z" fill="white"/>
</svg>
