<svg width="60" height="60" viewBox="0 0 60 60" fill="none" xmlns="http://www.w3.org/2000/svg">
<rect width="60" height="60" rx="30" fill="#EAEAEA"/>
<path d="M12 48L14.585 38.4046C12.5003 34.6667 11.8379 30.3049 12.7195 26.1196C13.6011 21.9343 15.9675 18.2062 19.3845 15.6195C22.8014 13.0327 27.0398 11.7608 31.3217 12.0372C35.6037 12.3135 39.642 14.1196 42.6957 17.1239C45.7494 20.1283 47.6137 24.1294 47.9463 28.393C48.279 32.6567 47.0577 36.897 44.5067 40.3357C41.9557 43.7744 38.246 46.1809 34.0584 47.1136C29.8708 48.0464 25.4861 47.4427 21.709 45.4135L12 48ZM22.1772 41.8229L22.7776 42.1779C25.5135 43.794 28.7089 44.4628 31.8659 44.08C35.023 43.6972 37.9643 42.2844 40.2315 40.0616C42.4987 37.8388 43.9645 34.9309 44.4004 31.7912C44.8363 28.6514 44.2179 25.4562 42.6415 22.7033C41.0651 19.9504 38.6193 17.7946 35.6851 16.5718C32.751 15.3489 29.4935 15.1278 26.4201 15.9428C23.3467 16.7578 20.6302 18.5632 18.6938 21.0776C16.7574 23.592 15.7099 26.6742 15.7147 29.8438C15.7121 32.472 16.4414 35.0493 17.8213 37.2889L18.1979 37.9076L16.7527 43.2632L22.1772 41.8229Z" fill="#252525"/>
<path fill-rule="evenodd" clip-rule="evenodd" d="M36.8733 32.9204C36.5062 32.6011 36.0762 32.3764 35.6163 32.2634C35.1564 32.1503 34.6786 32.1519 34.2194 32.2681C33.5294 32.5771 33.0835 33.7444 32.6377 34.328C32.5436 34.468 32.4055 34.5661 32.2491 34.604C32.0928 34.6419 31.929 34.6171 31.7884 34.534C29.2622 33.4674 27.1447 31.5113 25.7799 28.9835C25.6635 28.8258 25.6084 28.6255 25.6262 28.4249C25.644 28.2242 25.7334 28.0388 25.8754 27.9078C26.3727 27.3771 26.7378 26.7197 26.937 25.9966C26.9812 25.1989 26.8117 24.4044 26.4487 23.7077C26.168 22.731 25.6339 21.8613 24.9094 21.2014C24.5357 21.0202 24.1214 20.9595 23.7164 21.0265C23.3114 21.0935 22.9331 21.2854 22.627 21.5791C22.0957 22.0733 21.6739 22.6897 21.3928 23.3829C21.1117 24.0761 20.9785 24.8285 21.0028 25.5846C21.0045 26.0092 21.0544 26.432 21.1514 26.8435C21.398 27.8321 21.777 28.7767 22.2767 29.6473C22.6372 30.3142 23.0306 30.9598 23.4551 31.5814C24.8346 33.6231 26.5688 35.3565 28.5612 36.6856C29.5611 37.361 30.6297 37.9101 31.7459 38.3221C32.9055 38.8888 34.1858 39.1063 35.4508 38.9515C36.1716 38.8339 36.8545 38.5271 37.4395 38.0582C38.0244 37.5892 38.4935 36.9724 38.8054 36.2621C38.9887 35.833 39.0443 35.3533 38.9646 34.8888C38.7735 33.9389 37.5952 33.3782 36.8733 32.9204Z" fill="#252525"/>
</svg>
