<svg width="40" height="40" viewBox="0 0 40 40" fill="none" xmlns="http://www.w3.org/2000/svg">
<rect width="40" height="40" fill="#00D95F"/>
<path d="M8 31L9.72334 24.6031C8.33351 22.1112 7.89195 19.2033 8.47968 16.4131C9.06741 13.6229 10.645 11.1375 12.923 9.41298C15.201 7.68848 18.0265 6.84055 20.8811 7.02477C23.7358 7.209 26.428 8.41304 28.4638 10.4159C30.4996 12.4188 31.7424 15.0862 31.9642 17.9287C32.186 20.7712 31.3718 23.598 29.6712 25.8904C27.9705 28.1829 25.4974 29.7873 22.7056 30.4091C19.9139 31.0309 16.9908 30.6285 14.4727 29.2757L8 31ZM14.7848 26.8819L15.1851 27.1186C17.009 28.196 19.1393 28.6419 21.2439 28.3867C23.3486 28.1315 25.3095 27.1896 26.821 25.7077C28.3325 24.2258 29.3097 22.2873 29.6003 20.1941C29.8909 18.101 29.4786 15.9708 28.4277 14.1355C27.3767 12.3003 25.7462 10.8631 23.7901 10.0478C21.834 9.23262 19.6623 9.0852 17.6134 9.62854C15.5645 10.1719 13.7534 11.3755 12.4625 13.0517C11.1716 14.728 10.4733 16.7828 10.4764 18.8959C10.4747 20.648 10.9609 22.3662 11.8809 23.8593L12.1319 24.2717L11.1685 27.8421L14.7848 26.8819Z" fill="white"/>
<path fill-rule="evenodd" clip-rule="evenodd" d="M24.5822 20.9469C24.3374 20.7341 24.0508 20.5843 23.7442 20.5089C23.4376 20.4336 23.1191 20.4346 22.8129 20.512C22.3529 20.718 22.0557 21.4963 21.7584 21.8854C21.6958 21.9786 21.6037 22.0441 21.4994 22.0693C21.3952 22.0946 21.286 22.078 21.1923 22.0227C19.5081 21.3116 18.0965 20.0075 17.1866 18.3224C17.109 18.2172 17.0723 18.0837 17.0841 17.9499C17.096 17.8161 17.1556 17.6926 17.2503 17.6052C17.5818 17.2514 17.8252 16.8132 17.958 16.3311C17.9875 15.7993 17.8745 15.2696 17.6325 14.8051C17.4454 14.154 17.0893 13.5742 16.6063 13.1343C16.3572 13.0135 16.0809 12.973 15.811 13.0177C15.541 13.0623 15.2887 13.1903 15.0847 13.386C14.7305 13.7155 14.4493 14.1265 14.2619 14.5886C14.0745 15.0508 13.9856 15.5523 14.0019 16.0564C14.003 16.3395 14.0363 16.6213 14.101 16.8956C14.2653 17.5548 14.518 18.1845 14.8511 18.7649C15.0915 19.2095 15.3537 19.6399 15.6367 20.0543C16.5564 21.4154 17.7125 22.571 19.0408 23.4571C19.7074 23.9073 20.4198 24.2734 21.164 24.5481C21.937 24.9258 22.7905 25.0709 23.6339 24.9677C24.1144 24.8893 24.5697 24.6848 24.9596 24.3721C25.3496 24.0595 25.6623 23.6483 25.8703 23.1748C25.9924 22.8887 26.0295 22.5689 25.9764 22.2592C25.849 21.626 25.0635 21.2521 24.5822 20.9469Z" fill="white"/>
</svg>
