<svg xmlns="http://www.w3.org/2000/svg" version="1.1" xmlns:xlink="http://www.w3.org/1999/xlink" xmlns:svgjs="http://svgjs.dev/svgjs" width="1000" height="1000"><g clip-path="url(#SvgjsClipPath1388)"><rect width="1000" height="1000" fill="#252525"></rect><g transform="matrix(10,0,0,10,200,200)"><svg xmlns="http://www.w3.org/2000/svg" version="1.1" xmlns:xlink="http://www.w3.org/1999/xlink" xmlns:svgjs="http://svgjs.dev/svgjs" width="60" height="60"><svg width="60" height="60" viewBox="0 0 60 60" fill="none" xmlns="http://www.w3.org/2000/svg">
<path d="M2.91016 0.655839C4.48837 -0.182439 4.29199 -0.182436 5.57422 0.458574C6.16612 0.754543 7.59613 1.93827 8.73047 3.02303C10.7529 4.99576 10.9015 5.04551 12.5293 4.45369C13.7621 4.00999 14.5514 3.96077 15.5869 4.35506C16.3761 4.65096 20.2736 8.15286 24.2197 12.0982C31.1254 18.904 31.5202 19.2491 33 18.9039C34.3317 18.608 34.8255 18.8548 37.0449 20.9752C39.3628 23.194 39.5603 23.4907 38.9688 24.526C38.5249 25.4136 38.5245 26.0061 38.9189 26.8443C39.5602 28.2744 39.9058 28.3233 42.1748 26.9918L43.9502 25.9566L46.417 28.4713C48.6365 30.6411 48.9325 31.1351 48.7354 32.565C48.5874 33.4525 48.3408 34.5379 48.1436 34.982C47.8975 35.5741 49.2291 37.202 53.2236 41.0972C57.4159 45.1901 58.7482 46.818 58.9951 48.1002C59.1801 49.0712 59.1049 49.9124 58.7695 50.3795L58.6055 50.5846C58.1727 51.1543 58.3141 51.5156 59.1924 52.44C60.5735 53.9195 60.3271 54.6105 57.3184 57.816C55 60.3312 54.1122 60.5773 52.4844 59.0484C51.5968 58.2104 51.2011 58.1115 50.4121 58.5553C48.3404 59.6402 47.4031 59.0979 41.4346 53.3277C36.108 48.1994 35.318 47.6077 34.4795 48.15C33.9862 48.495 33.0493 48.7417 32.4082 48.7418C30.9284 48.7417 27.5734 46.3741 26.6855 44.648C26.0445 43.4155 26.0453 43.1684 27.0811 41.7877C28.166 40.3578 28.1656 40.2587 27.3271 39.3219C26.6861 38.5824 26.094 38.4338 24.7627 38.6803C23.283 38.9761 22.8878 38.7791 20.915 36.856C18.8928 34.8835 18.6953 34.5372 18.9912 33.0084C19.2869 31.431 19.0389 31.1333 11.6416 23.5894C3.50283 15.3535 2.91076 14.3664 4.68652 12.0484C5.37654 11.1612 5.17853 10.8646 2.71289 8.25154C1.23318 6.67344 0 5.04499 0 4.60115C0.000680763 3.41742 1.47999 1.44475 2.91016 0.655839Z" fill="#30A6E1"></path>
<path d="M3.69296 3.99081C2.56566 5.53678 2.66368 5.87496 5.11433 8.24223C7.51597 10.5612 8.15313 10.5612 9.62353 8.38716C10.3097 7.42093 10.1627 7.17937 8.30018 5.15029C5.99656 2.6864 4.82025 2.39653 3.69296 3.99081Z" fill="#252525"></path>
<path d="M10.4384 10.3455C7.97575 12.7151 7 13.9697 7 14.8525C7 15.7354 8.67273 17.6869 13.9697 22.9838L20.9394 30L25.4465 25.4929L30 20.9394L22.9838 13.9697C18.105 9.09091 15.6424 7 14.899 7C14.1556 7 12.6222 8.20808 10.4384 10.3455ZM15.8748 10.9495C15.8748 11.2283 15.503 11.5071 15.0384 11.5535C14.0626 11.7859 11.6465 13.9232 11.6465 14.6202C11.6465 15.3172 13.6444 16.9899 16.0606 19.3596C20.2889 23.402 20.9394 24.3313 20.103 24.8424C19.5455 25.1677 10.299 15.9677 10.0202 14.7596C9.60202 12.9939 13.3192 9.55555 14.9919 10.2061C15.503 10.3919 15.8748 10.7172 15.8748 10.9495Z" fill="#252525"></path>
<path d="M27.0609 26.9708C23.7101 30.2361 21 33.0816 21 33.3615C21 33.6414 21.7884 34.5277 22.7246 35.414L24.4493 37L31.2 30.6093L38 24.2653L36.2754 22.586C35.3884 21.6997 34.2551 21 33.8609 21C33.4174 21.0466 30.3623 23.7522 27.0609 26.9708Z" fill="#252525"></path>
<path d="M32.5295 32.0726C30.1061 34.7651 28.9164 36.4786 29.0046 37.066C29.313 38.8774 30.6348 38.1431 34.4241 34.0797C37.5084 30.7508 38.2134 29.7717 37.9491 28.9394C37.4644 27.1281 36.2747 27.8134 32.5295 32.0726Z" fill="#252525"></path>
<path d="M35.4436 35.1959C28.0989 42.8591 28.0539 42.8591 30.3068 44.8683C32.4697 46.8775 32.8302 46.7374 39.3187 40.0555C42.6531 36.6444 45.582 33.467 45.8073 32.9997C46.0776 32.4857 46.0776 31.8316 45.7172 31.1307C44.9962 29.7289 43.4642 28 42.8784 28C42.2926 28 39.2737 31.2241 35.4436 35.1959Z" fill="#252525"></path>
<path d="M43.5716 39.393C42.4443 40.8413 41.7763 42 42.0686 42C43.0288 42 47.1621 38.4661 46.9951 37.713C46.6611 36.3805 45.6173 36.9019 43.5716 39.393Z" fill="#252525"></path>
<path d="M42.929 42.6479C40.2405 44.1581 38 45.6226 38 45.8972C38 46.1718 38.3137 46.6295 38.6721 46.904C39.2098 47.2244 40.5093 46.7668 43.6011 45.165C49.3367 42.236 50.5017 41.3665 49.8296 40.5427C49.023 39.5359 48.1269 39.7647 42.929 42.6479Z" fill="#252525"></path>
<path d="M45.8323 46.2277C43.1477 47.4553 41 48.6434 41 48.9206C41 49.1978 41.3132 49.5938 41.6264 49.871C42.1633 50.2274 43.2372 49.9106 47.1298 48.089C52.4096 45.5941 53.3492 45 52.9017 44.3664C52.3201 43.5744 50.6198 44.01 45.8323 46.2277Z" fill="#252525"></path>
<path d="M49.1165 48.6622C44.4403 51.1428 43.0842 52.4057 44.5806 52.992C45.282 53.2175 55.3358 48.6171 55.8502 47.8053C56.3178 47.1288 55.6164 45.9562 54.7746 46.0013C54.3538 46.0013 51.8286 47.219 49.1165 48.6622Z" fill="#252525"></path>
<path d="M53.6384 53.7953C51.9395 55.3303 51.7396 55.7954 52.2393 56.3536C53.0388 57.2374 53.3885 57.2374 54.5378 56.2141C56.4865 54.5395 57.236 53.4231 56.9362 52.6789C56.4865 51.5625 55.7869 51.7485 53.6384 53.7953Z" fill="#252525"></path>
<path d="M49.2731 53.3399C47.0352 54.8746 46.3359 56 47.6879 56C48.1542 55.9488 49.4596 55.0281 50.5786 53.9538C52.9097 51.6007 52.3036 51.3449 49.2731 53.3399Z" fill="#252525"></path>
</svg></svg></g></g><defs><clipPath id="SvgjsClipPath1388"><rect width="1000" height="1000" x="0" y="0" rx="200" ry="200"></rect></clipPath></defs></svg>